<svg xmlns="http://www.w3.org/2000/svg" width="512" height="512" viewBox="0 0 512 512" version="1.1">
	<path d="M 331.313 1.094 C 320.536 2.055, 301.525 6.157, 291.540 9.675 C 280.118 13.700, 261.202 23.543, 251 30.770 C 240.301 38.349, 220.793 57.318, 214 66.746 C 197.643 89.449, 187.072 115.203, 182.907 142.500 C 181.337 152.793, 181.337 178.207, 182.907 188.500 C 187.034 215.550, 197.048 240.332, 212.607 261.999 L 219.236 271.231 208.385 282.116 L 197.533 293.001 186.996 282.496 L 176.459 271.991 92.362 356.246 C 15.261 433.492, 8.008 441.041, 5.159 447 C -11.018 480.842, 17.911 518.526, 54.201 510.884 C 67.315 508.122, 64.128 510.986, 155.249 420.080 L 239.997 335.530 229.498 324.998 L 218.999 314.467 229.938 303.562 L 240.876 292.658 245.188 296.189 C 255.491 304.626, 276.012 316.018, 289.500 320.787 C 333.219 336.245, 379.288 333.769, 419.500 313.800 C 470.798 288.326, 504.581 239.838, 510.979 182.500 C 516.112 136.503, 499.620 86.873, 468.248 53.906 C 438.017 22.139, 402.490 4.796, 359.928 1.029 C 347.236 -0.095, 344.579 -0.089, 331.313 1.094 M 326.625 61.554 C 283.624 70.098, 250.662 103.289, 242.512 146.250 C 240.558 156.549, 240.580 174.563, 242.557 184.989 C 248.810 217.949, 269.720 245.032, 300.500 260.037 C 330.037 274.436, 362.910 274.439, 392.500 260.048 C 414.066 249.559, 430.559 233.066, 441.048 211.500 C 455.435 181.919, 455.435 149.081, 441.048 119.500 C 426.097 88.760, 398.960 67.812, 365.989 61.557 C 355.973 59.657, 336.179 59.656, 326.625 61.554" stroke="none" fill="black" fill-rule="evenodd"/>
</svg>